<svg width="14" height="17" viewBox="0 0 14 17" fill="none" xmlns="http://www.w3.org/2000/svg">
<path d="M8 15.5C8 15.8466 8.17945 16.1684 8.47427 16.3507C8.76908 16.5329 9.13723 16.5494 9.44721 16.3944L13.4472 14.3944C13.786 14.225 14 13.8788 14 13.5V7.73607C14 7.38949 13.8205 7.06762 13.5257 6.88542C13.2309 6.70321 12.8628 6.68665 12.5528 6.84164L8.55279 8.84164C8.214 9.01103 8 9.3573 8 9.73607V15.5Z" fill="#1C1B1F"/>
<path d="M12.2111 4.77639C12.5499 4.607 12.7639 4.26074 12.7639 3.88197C12.7639 3.50319 12.5499 3.15693 12.2111 2.98754L7.44721 0.605573C7.16569 0.464809 6.83431 0.464809 6.55279 0.605573L1.78885 2.98754C1.45007 3.15693 1.23607 3.50319 1.23607 3.88197C1.23607 4.26074 1.45007 4.607 1.78885 4.77639L6.55279 7.15836C6.83431 7.29912 7.16569 7.29912 7.44721 7.15836L12.2111 4.77639Z" fill="#1C1B1F"/>
<path d="M1.44721 6.84164C1.13723 6.68665 0.769085 6.70321 0.474269 6.88542C0.179452 7.06762 0 7.38949 0 7.73607V13.5C0 13.8788 0.214002 14.225 0.552786 14.3944L4.55279 16.3944C4.86277 16.5494 5.23091 16.5329 5.52573 16.3507C5.82055 16.1684 6 15.8466 6 15.5V9.73607C6 9.3573 5.786 9.01103 5.44721 8.84164L1.44721 6.84164Z" fill="#1C1B1F"/>
</svg>
