<svg width="14" height="14" viewBox="0 0 14 14" fill="none" xmlns="http://www.w3.org/2000/svg">
<path d="M6.55165 0.90807C6.73507 0.536486 7.26494 0.536487 7.44835 0.908071L9.20128 4.4593C9.27405 4.60672 9.41464 4.70895 9.57732 4.73273L13.4981 5.30581C13.9081 5.36574 14.0715 5.86966 13.7747 6.15874L10.9384 8.92126C10.8205 9.03613 10.7666 9.2017 10.7945 9.36396L11.4637 13.2661C11.5338 13.6746 11.105 13.986 10.7382 13.7931L7.23273 11.9496C7.08704 11.873 6.91297 11.873 6.76728 11.9496L3.26182 13.7931C2.895 13.986 2.46623 13.6746 2.53629 13.2661L3.20554 9.36396C3.23337 9.2017 3.17954 9.03613 3.06161 8.92126L0.225339 6.15874C-0.0714581 5.86966 0.0919345 5.36574 0.501892 5.30581L4.42268 4.73273C4.58536 4.70895 4.72595 4.60672 4.79872 4.4593L6.55165 0.90807Z" fill="#FFC960"/>
</svg>
