<svg width="20" height="20" viewBox="0 0 20 20" fill="none" xmlns="http://www.w3.org/2000/svg">
<path d="M2.09497 10.4949L2.29999 10.6999L2.09497 10.4949C1.8216 10.7682 1.37839 10.7682 1.10502 10.4949L0.753277 10.8466L1.10502 10.4949C0.831652 10.2215 0.831652 9.77829 1.10502 9.50493L9.50502 1.10493C9.77839 0.831561 10.2216 0.831561 10.495 1.10493L18.895 9.50493C19.1683 9.77829 19.1683 10.2215 18.895 10.4949C18.6216 10.7682 18.1784 10.7682 17.905 10.4949L17.5535 10.1434L16.7 9.28985V10.497V18.3999C16.7 18.7865 16.3866 19.0999 16 19.0999H13.6C13.2134 19.0999 12.9 18.7865 12.9 18.3999V15.9999C12.9 15.061 12.1389 14.2999 11.2 14.2999H8.79999C7.86111 14.2999 7.09999 15.061 7.09999 15.9999V18.3999C7.09999 18.7865 6.78659 19.0999 6.39999 19.0999H3.99999C3.61339 19.0999 3.29999 18.7865 3.29999 18.3999V10.497V9.28985L2.44644 10.1434L2.09497 10.4949Z" fill="#0E47C0" stroke="#0E47C0"/>
</svg>
