<svg width="21" height="17" viewBox="0 0 21 17" fill="none" xmlns="http://www.w3.org/2000/svg">
<path d="M6.16699 1C4.4205 1 2.83489 1.47686 1.66699 2.25278V15.2528C2.83489 14.4769 4.4205 14 6.16699 14C7.91348 14 9.4991 14.4769 10.667 15.2528C11.8349 14.4769 13.4205 14 15.167 14C16.9135 14 18.4991 14.4769 19.667 15.2528V2.25278C18.4991 1.47686 16.9135 1 15.167 1C13.4205 1 11.8349 1.47686 10.667 2.25278C9.4991 1.47686 7.91348 1 6.16699 1Z" fill="white"/>
<path d="M10.667 2.25278V15.2528M10.667 2.25278C9.4991 1.47686 7.91348 1 6.16699 1C4.4205 1 2.83489 1.47686 1.66699 2.25278V15.2528C2.83489 14.4769 4.4205 14 6.16699 14C7.91348 14 9.4991 14.4769 10.667 15.2528M10.667 2.25278C11.8349 1.47686 13.4205 1 15.167 1C16.9135 1 18.4991 1.47686 19.667 2.25278V15.2528C18.4991 14.4769 16.9135 14 15.167 14C13.4205 14 11.8349 14.4769 10.667 15.2528" stroke="#939094" stroke-width="2" stroke-linecap="round" stroke-linejoin="round"/>
</svg>
