<svg width="23" height="18" viewBox="0 0 23 18" fill="none" xmlns="http://www.w3.org/2000/svg">
<path d="M16.333 17H21.333V15C21.333 13.3431 19.9899 12 18.333 12C17.3774 12 16.5261 12.4468 15.9768 13.1429M16.333 17H6.33301M16.333 17V15C16.333 14.3438 16.2066 13.717 15.9768 13.1429M6.33301 17H1.33301V15C1.33301 13.3431 2.67615 12 4.33301 12C5.28861 12 6.13987 12.4468 6.68925 13.1429M6.33301 17V15C6.33301 14.3438 6.45943 13.717 6.68925 13.1429M6.68925 13.1429C7.42651 11.301 9.22782 10 11.333 10C13.4382 10 15.2395 11.301 15.9768 13.1429M14.333 4C14.333 5.65685 12.9899 7 11.333 7C9.67615 7 8.33301 5.65685 8.33301 4C8.33301 2.34315 9.67615 1 11.333 1C12.9899 1 14.333 2.34315 14.333 4ZM20.333 7C20.333 8.10457 19.4376 9 18.333 9C17.2284 9 16.333 8.10457 16.333 7C16.333 5.89543 17.2284 5 18.333 5C19.4376 5 20.333 5.89543 20.333 7ZM6.33301 7C6.33301 8.10457 5.43758 9 4.33301 9C3.22844 9 2.33301 8.10457 2.33301 7C2.33301 5.89543 3.22844 5 4.33301 5C5.43758 5 6.33301 5.89543 6.33301 7Z" stroke="#939094" stroke-width="2" stroke-linecap="round" stroke-linejoin="round"/>
</svg>
